# 3ds Max Wavefront OBJ Exporter v0.99 - (c)2007 guruware
# File Created: 15.10.2024 12:21:17

mtllib arco.mtl

#
# object Box001
#

v  -44.0480 -13.0999 10.2504
v  -44.0480 -13.0999 -9.5303
v  -42.5511 -1.7296 -9.5303
v  -42.5511 -1.7296 10.2504
v  -38.1623 8.8658 -9.5303
v  -38.1623 8.8658 10.2504
v  -31.1808 17.9643 -9.5303
v  -31.1808 17.9643 10.2504
v  -22.0823 24.9459 -9.5303
v  -22.0823 24.9459 10.2504
v  -11.4869 29.3346 -9.5303
v  -11.4869 29.3346 10.2504
v  -0.1166 30.8315 -9.5303
v  -0.1166 30.8315 10.2504
v  11.2537 29.3346 -9.5303
v  11.2537 29.3346 10.2504
v  21.8491 24.9458 -9.5303
v  21.8491 24.9458 10.2504
v  30.9476 17.9643 -9.5303
v  30.9476 17.9643 10.2504
v  37.9291 8.8658 -9.5303
v  37.9291 8.8658 10.2504
v  42.3179 -1.7296 -9.5303
v  42.4150 -1.7296 10.9353
v  43.8148 -13.0999 -9.5303
v  43.9119 -13.0999 10.9353
v  -49.4181 -13.0999 10.2504
v  -47.7382 -0.3397 10.2504
v  -47.7382 -0.3397 -9.5303
v  -49.4181 -13.0999 -9.5303
v  -42.8130 11.5509 10.2504
v  -42.8130 11.5509 -9.5303
v  -34.9780 21.7616 10.2504
v  -34.9780 21.7616 -9.5303
v  -24.7673 29.5965 10.2504
v  -24.7673 29.5965 -9.5303
v  -12.8768 34.5217 10.2504
v  -12.8768 34.5217 -9.5303
v  -0.1166 36.2017 10.2504
v  -0.1166 36.2017 -9.5303
v  12.6436 34.5217 10.2504
v  12.6436 34.5217 -9.5303
v  24.5342 29.5965 10.2504
v  24.5342 29.5965 -9.5303
v  34.7448 21.7616 10.2504
v  34.7448 21.7616 -9.5303
v  42.5798 11.5509 10.2504
v  42.5798 11.5509 -9.5303
v  47.6021 -0.3397 10.9353
v  47.5050 -0.3397 -9.5303
v  49.0910 -13.0999 10.2846
v  49.1849 -13.0999 -9.5303
v  43.9119 -52.8449 10.9353
v  43.8148 -52.8449 -9.5303
v  49.1849 -52.8449 -9.5303
v  49.0910 -52.8449 10.2846
v  -44.0480 -52.8449 -9.5303
v  -44.0480 -52.8449 10.2504
v  -49.4181 -52.8449 10.2504
v  -49.4181 -52.8449 -9.5303
v  43.8148 -36.7518 -9.5303
v  43.9119 -36.7518 10.9353
v  49.1849 -36.7518 -9.5303
v  49.0910 -36.7518 10.2846
v  -44.0480 -36.7518 10.2504
v  -44.0480 -36.7518 -9.5303
v  -49.4181 -36.7518 10.2504
v  -49.4181 -36.7518 -9.5303
# 68 vertices

vn 0.6903 -0.0452 0.7221
vn 0.6903 -0.0452 -0.7221
vn 0.6521 -0.1747 -0.7377
vn 0.6521 -0.1747 0.7377
vn 0.5846 -0.3375 -0.7377
vn 0.5846 -0.3375 0.7377
vn 0.4774 -0.4774 -0.7377
vn 0.4774 -0.4774 0.7377
vn 0.3376 -0.5847 -0.7377
vn 0.3376 -0.5847 0.7377
vn 0.1747 -0.6521 -0.7377
vn 0.1747 -0.6521 0.7377
vn 0.0000 -0.6751 -0.7377
vn 0.0000 -0.6751 0.7377
vn -0.1747 -0.6521 -0.7377
vn -0.1747 -0.6521 0.7377
vn -0.3376 -0.5847 -0.7377
vn -0.3376 -0.5847 0.7377
vn -0.4774 -0.4774 -0.7377
vn -0.4774 -0.4774 0.7377
vn -0.5847 -0.3376 -0.7377
vn -0.6021 -0.3236 0.7299
vn -0.6537 -0.1752 -0.7362
vn -0.6485 -0.1513 0.7460
vn -0.6919 -0.0454 -0.7205
vn -0.6400 -0.0417 0.7673
vn -0.7197 0.0472 0.6927
vn -0.7092 0.1900 0.6789
vn -0.7092 0.1900 -0.6789
vn -0.7197 0.0472 -0.6927
vn -0.6359 0.3671 0.6789
vn -0.6359 0.3671 -0.6789
vn -0.5192 0.5192 0.6789
vn -0.5192 0.5192 -0.6789
vn -0.3671 0.6359 0.6789
vn -0.3671 0.6359 -0.6789
vn -0.1900 0.7092 0.6789
vn -0.1900 0.7092 -0.6789
vn 0.0000 0.7343 0.6789
vn 0.0000 0.7343 -0.6789
vn 0.1900 0.7092 0.6789
vn 0.1900 0.7092 -0.6789
vn 0.3671 0.6359 0.6789
vn 0.3671 0.6359 -0.6789
vn 0.5192 0.5192 0.6789
vn 0.5192 0.5192 -0.6789
vn 0.6308 0.3861 0.6731
vn 0.6359 0.3671 -0.6789
vn 0.7026 0.1861 0.6868
vn 0.7077 0.1897 -0.6805
vn 0.7631 0.0290 0.6457
vn 0.7213 0.0473 -0.6910
vn -0.5415 -0.5714 0.6167
vn -0.5788 -0.5771 -0.5761
vn 0.5788 -0.5771 -0.5761
vn 0.6071 -0.5846 0.5382
vn 0.5774 -0.5774 -0.5774
vn 0.5774 -0.5774 0.5774
vn -0.5774 -0.5774 0.5774
vn -0.5774 -0.5774 -0.5774
vn -0.7087 0.0000 -0.7055
vn -0.6598 0.0000 0.7515
vn 0.7087 0.0000 -0.7055
vn 0.7483 0.0000 0.6633
vn 0.7071 0.0000 0.7071
vn 0.7071 0.0000 -0.7071
vn -0.7071 0.0000 0.7071
vn -0.7071 0.0000 -0.7071
# 68 vertex normals

vt 1.0000 0.0000 0.0000
vt 1.0000 1.0000 0.0000
vt 0.9167 1.0000 0.0000
vt 0.9167 0.0000 0.0000
vt 0.8333 1.0000 0.0000
vt 0.8333 0.0000 0.0000
vt 0.7500 1.0000 0.0000
vt 0.7500 0.0000 0.0000
vt 0.6667 1.0000 0.0000
vt 0.6667 0.0000 0.0000
vt 0.5833 1.0000 0.0000
vt 0.5833 0.0000 0.0000
vt 0.5000 1.0000 0.0000
vt 0.5000 0.0000 0.0000
vt 0.4167 1.0000 0.0000
vt 0.4167 0.0000 0.0000
vt 0.3333 1.0000 0.0000
vt 0.3333 0.0000 0.0000
vt 0.2500 1.0000 0.0000
vt 0.2500 0.0000 0.0000
vt 0.1667 1.0000 0.0000
vt 0.1667 0.0000 0.0000
vt 0.0833 1.0000 0.0000
vt 0.0833 0.0000 0.0000
vt 0.0000 1.0000 0.0000
vt 0.0000 0.0000 0.0000
vt 0.8210 0.0141 0.0000
vt 0.8210 1.0141 0.0000
vt 0.9044 0.0141 0.0000
vt 0.9044 1.0141 0.0000
vt 0.0108 0.0000 0.0000
vt 0.0833 0.9705 0.0000
vt 0.0108 0.9705 0.0000
vt 1.0017 0.0050 0.0000
vt 1.0017 0.9983 0.0000
# 35 texture coords

o Box001
g Box001
usemtl 01___Default
s 2
f 1/1/1 2/2/2 3/3/3 4/4/4 
f 4/4/4 3/3/3 5/5/5 6/6/6 
f 6/6/6 5/5/5 7/7/7 8/8/8 
f 8/8/8 7/7/7 9/9/9 10/10/10 
f 10/10/10 9/9/9 11/11/11 12/12/12 
f 12/12/12 11/11/11 13/13/13 14/14/14 
f 14/14/14 13/13/13 15/15/15 16/16/16 
f 16/16/16 15/15/15 17/17/17 18/18/18 
f 18/18/18 17/17/17 19/19/19 20/20/20 
f 20/20/20 19/19/19 21/21/21 22/22/22 
f 22/22/22 21/21/21 23/23/23 24/24/24 
f 24/24/24 23/23/23 25/25/25 26/26/26 
s 4
f 27/26/27 28/24/28 29/23/29 30/25/30 
f 28/24/28 31/22/31 32/21/32 29/23/29 
f 31/22/31 33/20/33 34/19/34 32/21/32 
f 33/20/33 35/18/35 36/17/36 34/19/34 
f 35/18/35 37/16/37 38/15/38 36/17/36 
f 37/16/37 39/14/39 40/13/40 38/15/38 
f 39/14/39 41/12/41 42/11/42 40/13/40 
f 41/12/41 43/10/43 44/9/44 42/11/42 
f 43/10/43 45/8/45 46/7/46 44/9/44 
f 45/8/45 47/6/47 48/5/48 46/7/46 
f 47/6/47 49/27/49 50/28/50 48/5/48 
f 49/27/49 51/29/51 52/30/52 50/28/50 
s 8
f 1/31/1 4/24/4 28/32/28 27/33/27 
f 4/24/4 6/22/6 31/21/31 28/32/28 
f 6/22/6 8/20/8 33/19/33 31/21/31 
f 8/20/8 10/18/10 35/17/35 33/19/33 
f 10/18/10 12/16/12 37/15/37 35/17/35 
f 12/16/12 14/14/14 39/13/39 37/15/37 
f 14/14/14 16/12/16 41/11/41 39/13/39 
f 16/12/16 18/10/18 43/9/43 41/11/41 
f 18/10/18 20/8/20 45/7/45 43/9/43 
f 20/8/20 22/6/22 47/5/47 45/7/45 
f 22/6/22 24/4/24 49/3/49 47/5/47 
f 24/4/24 26/1/26 51/2/51 49/3/49 
s 16
f 53/26/53 54/1/54 55/2/55 56/25/56 
s 32
f 25/26/25 23/24/23 50/23/50 52/25/52 
f 23/24/23 21/22/21 48/21/48 50/23/50 
f 21/22/21 19/20/19 46/19/46 48/21/48 
f 19/20/19 17/18/17 44/17/44 46/19/46 
f 17/18/17 15/16/15 42/15/42 44/17/44 
f 15/16/15 13/14/13 40/13/40 42/15/42 
f 13/14/13 11/12/11 38/11/38 40/13/40 
f 11/12/11 9/10/9 36/9/36 38/11/38 
f 9/10/9 7/8/7 34/7/34 36/9/36 
f 7/8/7 5/6/5 32/5/32 34/7/34 
f 5/6/5 3/4/3 29/3/29 32/5/32 
f 3/4/3 2/1/2 30/2/30 29/3/29 
s 64
f 57/26/57 58/1/58 59/2/59 60/25/60 
s off
f 26/26/26 25/1/25 61/1/61 62/26/62 
f 25/1/25 52/2/52 63/2/63 61/1/61 
f 52/2/52 51/25/51 64/25/64 63/2/63 
f 51/25/51 26/26/26 62/26/62 64/25/64 
f 2/26/2 1/34/1 65/34/65 66/26/66 
f 1/34/1 27/35/27 67/35/67 65/34/65 
f 27/35/27 30/25/30 68/25/68 67/35/67 
f 30/25/30 2/26/2 66/26/66 68/25/68 
f 62/26/62 61/1/61 54/1/54 53/26/53 
f 61/1/61 63/2/63 55/2/55 54/1/54 
f 63/2/63 64/25/64 56/25/56 55/2/55 
f 64/25/64 62/26/62 53/26/53 56/25/56 
f 66/26/66 65/34/65 58/1/58 57/26/57 
f 65/34/65 67/35/67 59/2/59 58/1/58 
f 67/35/67 68/25/68 60/25/60 59/2/59 
f 68/25/68 66/26/66 57/26/57 60/25/60 
# 66 polygons

