# 3ds Max Wavefront OBJ Exporter v0.99 - (c)2007 guruware
# File Created: 24.10.2024 13:13:01

mtllib letrero.mtl

#
# object Box003
#

v  -21.7175 -6.6513 3.1529
v  -21.7175 -6.6513 -1.7456
v  -18.0751 -6.6513 -1.7456
v  -18.0751 -6.6513 3.1529
v  -14.4327 -6.6513 -1.7456
v  -14.4327 -6.6513 3.1529
v  -10.7903 -6.6513 -1.7456
v  -10.7903 -6.6513 3.1529
v  -7.1479 -6.6513 -1.7456
v  -7.1479 -6.6513 3.1529
v  -3.5055 -6.6513 -1.7456
v  -3.5055 -6.6513 3.1529
v  0.1369 -6.6513 -1.7456
v  0.1369 -6.6513 3.1529
v  3.7793 -6.6513 -1.7456
v  3.7793 -6.6513 3.1529
v  7.4217 -6.6513 -1.7456
v  7.4217 -6.6513 3.1529
v  11.0641 -6.6513 -1.7456
v  11.0641 -6.6513 3.1529
v  14.7065 -6.6513 -1.7456
v  14.7065 -6.6513 3.1529
v  18.3489 -6.6513 -1.7456
v  18.3489 -6.6513 3.1529
v  21.9913 -6.6513 -1.7456
v  21.9913 -6.6513 3.1529
v  -21.7175 7.8587 3.1529
v  -18.0751 7.8587 3.1529
v  -18.0751 7.8587 -1.7456
v  -21.7175 7.8587 -1.7456
v  -14.4327 7.8587 3.1529
v  -14.4327 7.8587 -1.7456
v  -10.7903 7.8587 3.1529
v  -10.7903 7.8587 -1.7456
v  -7.1479 7.8587 3.1529
v  -7.1479 7.8587 -1.7456
v  -3.5055 7.8587 3.1529
v  -3.5055 7.8587 -1.7456
v  0.1369 7.8587 3.1529
v  0.1369 7.8587 -1.7456
v  3.7793 7.8587 3.1529
v  3.7793 7.8587 -1.7456
v  7.4217 7.8587 3.1529
v  7.4217 7.8587 -1.7456
v  11.0641 7.8587 3.1529
v  11.0641 7.8587 -1.7456
v  14.7065 7.8587 3.1529
v  14.7065 7.8587 -1.7456
v  18.3489 7.8587 3.1529
v  18.3489 7.8587 -1.7456
v  21.9913 7.8587 3.1529
v  21.9913 7.8587 -1.7456
# 52 vertices

vn -0.5774 -0.5774 0.5774
vn -0.7071 -0.7071 -0.0000
vn 0.0000 -1.0000 -0.0000
vn 0.0000 -0.7071 0.7071
vn 0.7071 -0.7071 -0.0000
vn 0.5774 -0.5774 0.5774
vn -0.5774 0.5774 0.5774
vn 0.0000 0.7071 0.7071
vn 0.0000 1.0000 -0.0000
vn -0.7071 0.7071 -0.0000
vn 0.5774 0.5774 0.5774
vn 0.7071 0.7071 -0.0000
# 12 vertex normals

vt 1.0000 0.0000 0.0000
vt 1.0000 1.0000 0.0000
vt 0.9167 1.0000 0.0000
vt 0.9167 0.0000 0.0000
vt 0.8333 1.0000 0.0000
vt 0.8333 0.0000 0.0000
vt 0.7500 1.0000 0.0000
vt 0.7500 0.0000 0.0000
vt 0.6667 1.0000 0.0000
vt 0.6667 0.0000 0.0000
vt 0.5833 1.0000 0.0000
vt 0.5833 0.0000 0.0000
vt 0.5000 1.0000 0.0000
vt 0.5000 0.0000 0.0000
vt 0.4167 1.0000 0.0000
vt 0.4167 0.0000 0.0000
vt 0.3333 1.0000 0.0000
vt 0.3333 0.0000 0.0000
vt 0.2500 1.0000 0.0000
vt 0.2500 0.0000 0.0000
vt 0.1667 1.0000 0.0000
vt 0.1667 0.0000 0.0000
vt 0.0833 1.0000 0.0000
vt 0.0833 0.0000 0.0000
vt 0.0000 1.0000 0.0000
vt 0.0000 0.0000 0.0000
# 26 texture coords

o Box003
g Box003
usemtl 07___Default
s 2
f 1/1/1 2/2/2 3/3/3 4/4/4 
f 4/4/4 3/3/3 5/5/3 6/6/4 
f 6/6/4 5/5/3 7/7/3 8/8/4 
f 8/8/4 7/7/3 9/9/3 10/10/4 
f 10/10/4 9/9/3 11/11/3 12/12/4 
f 12/12/4 11/11/3 13/13/3 14/14/4 
f 14/14/4 13/13/3 15/15/3 16/16/4 
f 16/16/4 15/15/3 17/17/3 18/18/4 
f 18/18/4 17/17/3 19/19/3 20/20/4 
f 20/20/4 19/19/3 21/21/3 22/22/4 
f 22/22/4 21/21/3 23/23/3 24/24/4 
f 24/24/4 23/23/3 25/25/5 26/26/6 
s 4
f 27/26/7 28/24/8 29/23/9 30/25/10 
f 28/24/8 31/22/8 32/21/9 29/23/9 
f 31/22/8 33/20/8 34/19/9 32/21/9 
f 33/20/8 35/18/8 36/17/9 34/19/9 
f 35/18/8 37/16/8 38/15/9 36/17/9 
f 37/16/8 39/14/8 40/13/9 38/15/9 
f 39/14/8 41/12/8 42/11/9 40/13/9 
f 41/12/8 43/10/8 44/9/9 42/11/9 
f 43/10/8 45/8/8 46/7/9 44/9/9 
f 45/8/8 47/6/8 48/5/9 46/7/9 
f 47/6/8 49/4/8 50/3/9 48/5/9 
f 49/4/8 51/1/11 52/2/12 50/3/9 
s 8
f 1/26/1 4/24/4 28/23/8 27/25/7 
f 4/24/4 6/22/4 31/21/8 28/23/8 
f 6/22/4 8/20/4 33/19/8 31/21/8 
f 8/20/4 10/18/4 35/17/8 33/19/8 
f 10/18/4 12/16/4 37/15/8 35/17/8 
f 12/16/4 14/14/4 39/13/8 37/15/8 
f 14/14/4 16/12/4 41/11/8 39/13/8 
f 16/12/4 18/10/4 43/9/8 41/11/8 
f 18/10/4 20/8/4 45/7/8 43/9/8 
f 20/8/4 22/6/4 47/5/8 45/7/8 
f 22/6/4 24/4/4 49/3/8 47/5/8 
f 24/4/4 26/1/6 51/2/11 49/3/8 
s 16
f 26/26/6 25/1/5 52/2/12 51/25/11 
s 64
f 2/26/2 1/1/1 27/2/7 30/25/10 
# 38 polygons

#
# object enfrente
#

v  21.9913 -6.6513 -1.7456
v  18.3489 -6.6513 -1.7456
v  18.3489 7.8587 -1.7456
v  21.9913 7.8587 -1.7456
v  14.7065 -6.6513 -1.7456
v  14.7065 7.8587 -1.7456
v  11.0641 -6.6513 -1.7456
v  11.0641 7.8587 -1.7456
v  7.4217 -6.6513 -1.7456
v  7.4217 7.8587 -1.7456
v  3.7793 -6.6513 -1.7456
v  3.7793 7.8587 -1.7456
v  0.1369 -6.6513 -1.7456
v  0.1369 7.8587 -1.7456
v  -3.5055 -6.6513 -1.7456
v  -3.5055 7.8587 -1.7456
v  -7.1479 -6.6513 -1.7456
v  -7.1479 7.8587 -1.7456
v  -10.7903 -6.6513 -1.7456
v  -10.7903 7.8587 -1.7456
v  -14.4327 -6.6513 -1.7456
v  -14.4327 7.8587 -1.7456
v  -18.0751 -6.6513 -1.7456
v  -18.0751 7.8587 -1.7456
v  -21.7175 -6.6513 -1.7456
v  -21.7175 7.8587 -1.7456
# 26 vertices

vn 0.0000 0.0000 -1.0000
# 1 vertex normals

vt 0.5044 0.0100 0.0000
vt 0.5455 0.0100 0.0000
vt 0.5455 0.2776 0.0000
vt 0.5044 0.2776 0.0000
vt 0.5867 0.0100 0.0000
vt 0.5867 0.2776 0.0000
vt 0.6279 0.0100 0.0000
vt 0.6279 0.2776 0.0000
vt 0.6690 0.0100 0.0000
vt 0.6690 0.2776 0.0000
vt 0.7102 0.0100 0.0000
vt 0.7102 0.2776 0.0000
vt 0.7514 0.0100 0.0000
vt 0.7514 0.2776 0.0000
vt 0.7925 0.0100 0.0000
vt 0.7925 0.2776 0.0000
vt 0.8337 0.0100 0.0000
vt 0.8337 0.2776 0.0000
vt 0.8748 0.0100 0.0000
vt 0.8748 0.2776 0.0000
vt 0.9160 0.0100 0.0000
vt 0.9160 0.2776 0.0000
vt 0.9572 0.0100 0.0000
vt 0.9572 0.2776 0.0000
vt 0.9983 0.0100 0.0000
vt 0.9983 0.2776 0.0000
# 26 texture coords

o enfrente
g enfrente
usemtl 03___Default
s 32
f 53/27/13 54/28/13 55/29/13 56/30/13 
f 54/28/13 57/31/13 58/32/13 55/29/13 
f 57/31/13 59/33/13 60/34/13 58/32/13 
f 59/33/13 61/35/13 62/36/13 60/34/13 
f 61/35/13 63/37/13 64/38/13 62/36/13 
f 63/37/13 65/39/13 66/40/13 64/38/13 
f 65/39/13 67/41/13 68/42/13 66/40/13 
f 67/41/13 69/43/13 70/44/13 68/42/13 
f 69/43/13 71/45/13 72/46/13 70/44/13 
f 71/45/13 73/47/13 74/48/13 72/46/13 
f 73/47/13 75/49/13 76/50/13 74/48/13 
f 75/49/13 77/51/13 78/52/13 76/50/13 
# 12 polygons

